<svg xmlns="http://www.w3.org/2000/svg" viewBox="0 0 36 46" aria-labelledby="title"><title id="title">Cody – The Smashing Mascot</title><style>.st0{fill:none;}.st1{opacity:0.2;}.st2{fill:#E6E6E6;}.st3{fill:#EF7900;}.st4{fill:#E30B13;}.st5{fill:#fff;}.st6{fill:#12100B;}.st7{fill:#FDCB01;}.st8{opacity:0.1;fill:#12100B;}</style><path d="M20.6 31.2c-7.1 2.1-12.4-1.3-14.3-2.8h-.4c-.5-.1-1.4.1-1.8.5l-.5.4c-.5.4-1.1.5-1.5.1-.4-.4-.2-.9.3-1.3l.7-.5c.5-.4.4-.8-.2-.9l-2-.5c-.6-.2-1-.7-.9-1.2.1-.5.7-.8 1.3-.6l2 .6c.6.2.7 0 .3-.5l-.9-.9c-.4-.4-.6-1.1-.3-1.4.3-.3.8-.3 1.3.2l1.9 1.7c.5.4.9.3 1-.3.1-.6.6-1 1.1-.9.5.1.8.6.6 1.2L7.4 27c1.5 1.2 6 4.1 11.9 2.7l-7.8-8.4-.2-.2-.1-.1-.2-.1-.9-1-.3-.4.4-.4.1-.1 8.5-7.9-4.3-4.6 3.7.1.1-4 4.4 4.7L29.8.6l.4.3.7.6.4.5.1.1c.5-.4 1.3-.4 1.7.1l1.1 1.2L36 5.2" class="st0"/><path d="M10.1 19.2l-.4.4.4-.4" class="st1"/><path d="M30.1 1.2L23 7.8l.6.7-4 3.7-.6-.6-8.3 7.7 1.1 1.2-.5-.5L30.9 1.7l-.8-.6v.1m1.3.9V2v.1z" class="st2"/><path d="M34.1 3.2l.2.2-1.2-1.2 1 1m-23 17.9l-.1-.2.1.2m19-19.9v-.1l-.4-.3" class="st3"/><path d="M30.9 1.7l.4.3" class="st1"/><path d="M11.8 20.5L31.3 2.1h.1l-.1-.1-.4-.3L11.3 20" class="st2"/><path d="M11.8 20.5L31.3 2.1h.1l-.1-.1-.4-.3L11.3 20" class="st1"/><path d="M7.4 27.1l-.1.5c-.1.5-.5.8-.9.9 1.9 1.5 7.3 4.9 14.3 2.8l-1.3-1.4c-6.1 1.3-10.5-1.6-12-2.8z" class="st3"/><path d="M7.2 27.5l.1-.5.9-2.9c.2-.5-.1-1.1-.6-1.1-.5-.1-1 .3-1.1.9-.1.6-.5.7-1 .3l-1.9-1.7c-.5-.4-1-.5-1.3-.2-.3.3-.1 1 .3 1.4l.9.9c.5.4.4.6-.2.4l-2-.6c-.6-.2-1.2.1-1.3.6-.1.5.3 1.1.9 1.2l2 .5c.6.2.7.6.2.9l-.7.5c-.5.4-.7.9-.3 1.3.4.4 1 .3 1.5-.1l.5-.4c.5-.4 1.3-.7 1.8-.5h.4c.4-.1.8-.4.9-.9z" class="st3"/><path d="M16.4 25.4l8.5 9.1 11-10.3v-4.1c-1.4.8-3.3.6-4.4-.6-.1-.1-.1-.2-.2-.3l-.1-.1-.3-.6c-.6-1.4-.4-3.1.8-4.2 1.2-1.1 2.9-1.3 4.3-.5V7.1L16.4 25.4zm9.4-5.5c1.5-1.4 3.7-1.3 5.1.2 1.4 1.5 1.3 3.7-.2 5.1-1.5 1.4-3.7 1.3-5.1-.2-.1-.1-.1-.2-.2-.3l-.1-.1-.3-.6c-.6-1.3-.4-3 .8-4.1zm1.3 16.9l3.4 3.6 5.5-5.2v-6.8m-1.8 16L36 46v-3.3M23 7.8l7.1-6.6-.4-.4-7.1 6.7M11.1 21.1l.7-.6 1.9 2L34.1 3.2l-1-1c-.5-.5-1.2-.5-1.7-.1h-.1L11.8 20.5l-1.1-1.1 8.3-7.8-.3-.4-8.5 7.9-.1.1-.4.4.3.4.9 1 .2.1zm.1.1l.2.2 7.9 8.4 1.3 1.4L34.5 46" class="st4"/><path d="M34.1 3.2L13.6 22.4l2.8 3L36 7.1V5.2l-1.7-1.8M25 34.5l2.1 2.3 8.9-8.4v-4.2m-5.5 16.2l3.7 4 1.8-1.7v-7.5" class="st3"/><path d="M25.3 23.1c.4-.4 1.1-.4 1.5 0 .4.4.4 1.1 0 1.5-.4.4-1 .4-1.4.1.1.1.1.2.2.3 1.4 1.5 3.6 1.5 5.1.2 1.5-1.4 1.5-3.6.2-5.1-1.4-1.5-3.6-1.5-5.1-.2-1.2 1.1-1.4 2.8-.8 4.1 0-.3.1-.7.3-.9zm6.4-8.8c-1.2 1.1-1.4 2.8-.8 4.2-.1-.3 0-.7.3-1 .4-.4 1.1-.4 1.5 0 .4.4.4 1.1 0 1.5-.4.4-1 .4-1.4.1.1.1.1.2.2.3 1.2 1.2 3 1.5 4.4.6v-6.2c-1.2-.7-3-.6-4.2.5z" class="st5"/><path d="M32.7 19.1c.4-.4.5-1.1 0-1.5-.4-.4-1.1-.5-1.5 0-.3.3-.4.6-.3 1 0 .2.1.4.3.6l.1.1c.5.2 1 .2 1.4-.2zm-5.9 5.5c.4-.4.5-1.1 0-1.5-.4-.4-1.1-.5-1.5 0-.3.3-.4.6-.3 1 0 .2.1.4.3.6l.1.1c.4.2 1 .2 1.4-.2z" class="st6"/><path d="M19 11.6l.6.6 4-3.7-.6-.7-.4-.3-4.4-4.7-.1 3.9-3.8-.1 4.3 4.6" class="st7"/><path d="M11.1 21.1l.1.1v-.1" class="st8"/><path d="M11.1 21.1h.1" class="st3"/><path d="M11.1 21.1h.1" class="st8"/><path d="M33.6 45l-3.8-4 .7-.6-3.4-3.6-.7.6-2.1-2.3.7-.6-8.6-9.1-.6.6-2.8-3 .6-.6-1.8-1.9-.7.6h.1v.1L34.5 46H36l-1.8-1.6" class="st4"/><path d="M33.6 45l-3.8-4 .7-.6-3.4-3.6-.7.6-2.1-2.3.7-.6-8.6-9.1-.6.6-2.8-3 .6-.6-1.8-1.9-.7.6h.1v.1L34.5 46H36l-1.8-1.6" class="st8"/><path d="M15.78 25.99l-2.804-2.992.657-.615 2.804 2.99z" class="st3"/><path d="M15.78 25.99l-2.804-2.992.657-.615 2.804 2.99z" class="st8"/><path d="M26.452 37.41l-2.12-2.26.657-.616 2.12 2.26z" class="st3"/><path d="M26.452 37.41l-2.12-2.26.657-.616 2.12 2.26z" class="st8"/><path d="M34.272 44.43l-.656.616-3.762-4.013.657-.615z" class="st3"/><path d="M34.272 44.43l-.656.616-3.762-4.013.657-.615z" class="st8"/></svg>
