<?xml version="1.0" encoding="utf-8" standalone="no" ?><svg xmlns="http://www.w3.org/2000/svg" id="Layer_1" viewBox="0 0 30 24" aria-labelledby="title"><title id="title">Search Icon</title><style><![CDATA[ .st0{fill:#FFFFFF;} ]]></style><g><path d="M18.965 3c2.757 0 5 2.243 5 5s-2.243 5-5 5-5-2.243-5-5 2.243-5 5-5m0-3c-4.418 0-8 3.582-8 8s3.582 8 8 8 8-3.582 8-8-3.582-8-8-8z" class="st0"/></g><path d="M12.942 16.71c.52-.522-.105-1.186-.848-1.93-.743-.742-1.32-1.282-1.843-.76L3.17 21.1c-.52.52-.34 1.546.402 2.29.743.742 1.768.922 2.29.4l7.08-7.08z" class="st0"/></svg>
